<svg width="512" height="145" viewBox="0 0 512 145" fill="none" xmlns="http://www.w3.org/2000/svg">
<path d="M79.7431 61.0428H42.2708L50.6384 11.8329C50.8203 9.76685 49.9108 8.26425 47.7279 8.26425H25.1718C23.3527 8.26425 22.2613 9.39119 21.8975 11.2694L0.0689419 138.99C-0.294867 141.056 0.79656 142.558 2.97941 142.558H25.3537C27.3546 142.558 28.446 141.431 28.8098 139.553L37.5413 88.2772H75.1955L66.4641 138.99C66.1003 141.056 67.1917 142.558 69.1926 142.558H91.7488C93.7497 142.558 94.8412 141.431 95.0231 139.553L117.034 11.8329C117.215 9.76685 116.124 8.26425 114.123 8.26425H91.5669C89.7478 8.26425 88.4745 9.39119 88.2926 11.2694L79.7431 61.0428Z" fill="url(#paint0_linear_53_9)"/>
<path d="M189.802 138.426C191.44 137.863 192.167 136.548 192.531 134.858L200.717 87.3381C205.628 59.1645 192.895 42.2604 168.156 42.2604C153.422 42.2604 139.779 45.6412 131.047 51.0881C129.956 51.8394 129.956 53.1542 130.502 54.8446L136.141 70.2461C136.868 72.3122 138.323 72.6878 140.324 71.7487C145.782 69.1192 153.967 67.4288 161.971 67.4288C173.431 67.4288 175.978 72.5 174.341 81.7034L173.977 84.7085C169.429 83.7694 163.972 83.206 158.515 83.206C135.231 83.206 120.315 91.2824 117.223 109.501C113.584 129.974 126.5 145 151.966 145C165.973 145 179.434 142.183 189.802 138.426ZM144.326 111.004C145.236 105.369 149.965 102.364 158.879 102.364C162.881 102.364 167.064 102.927 170.521 103.679L167.974 120.019C164.7 120.771 159.606 121.522 155.422 121.522C147.419 121.522 143.053 118.141 144.326 111.004Z" fill="url(#paint1_linear_53_9)"/>
<path d="M252.902 46.3925L258.905 11.8329C259.087 9.57903 258.177 8.26425 255.994 8.26425H234.893C233.074 8.26425 231.801 9.39119 231.619 11.2694L210.7 131.665C210.336 133.731 210.882 134.858 212.519 135.797C222.524 141.431 235.985 145 248.536 145C275.094 145 292.557 130.725 296.923 104.43L300.197 84.8964C304.381 59.9158 290.738 42.2604 270.365 42.2604C263.271 42.2604 257.45 43.9508 252.902 46.3925ZM269.455 102.364C267.272 115.136 260.906 120.395 251.447 120.395C247.263 120.395 243.625 119.644 240.532 118.141L248.718 69.8705C252.356 67.6166 256.904 66.114 261.815 66.114C270.183 66.114 274.912 71.3731 272.911 81.7034L269.455 102.364Z" fill="url(#paint2_linear_53_9)"/>
<path d="M350.782 46.3925L356.785 11.8329C356.967 9.57903 356.057 8.26425 353.875 8.26425H332.774C330.955 8.26425 329.681 9.39119 329.499 11.2694L308.58 131.665C308.217 133.731 308.762 134.858 310.399 135.797C320.404 141.431 333.865 145 346.416 145C372.975 145 390.437 130.725 394.803 104.43L398.077 84.8964C402.261 59.9158 388.618 42.2604 368.245 42.2604C361.151 42.2604 355.33 43.9508 350.782 46.3925ZM367.335 102.364C365.153 115.136 358.786 120.395 349.327 120.395C345.143 120.395 341.505 119.644 338.413 118.141L346.598 69.8705C350.236 67.6166 354.784 66.114 359.695 66.114C368.063 66.114 372.793 71.3731 370.792 81.7034L367.335 102.364Z" fill="url(#paint3_linear_53_9)"/>
<path d="M429.381 142.558C431.381 142.558 432.473 141.431 432.837 139.553L448.48 48.2707C448.844 46.2047 447.753 44.8899 445.57 44.8899H424.469C422.65 44.8899 421.377 45.829 421.195 47.7073L405.551 138.99C405.187 141.056 406.279 142.558 408.28 142.558H429.381ZM454.483 17.6554C456.302 7.51296 450.481 0 441.204 0C432.837 0 426.652 5.4469 425.197 13.7111C423.378 23.478 429.199 31.1788 438.476 31.1788C446.661 31.1788 453.028 25.3562 454.483 17.6554Z" fill="url(#paint4_linear_53_9)"/>
<path d="M505.564 70.9974C507.565 70.9974 508.657 70.0583 509.021 67.9922L511.931 50.7124C512.295 48.6464 511.203 47.1438 509.021 47.1438H494.468L495.56 24.7927C495.742 22.7267 494.65 21.4119 492.467 21.4119H474.641C472.64 21.4119 471.548 22.5389 471.184 24.4171L457.542 104.994C452.812 132.416 465.727 145 485.919 145C489.011 145 492.467 144.624 495.196 144.061C497.015 143.873 497.924 142.746 498.288 140.868L501.199 123.4C501.744 120.959 500.471 120.019 498.288 120.207C496.469 120.207 494.832 120.207 493.377 120.207C485.919 120.207 483.008 115.699 484.463 107.247L490.648 70.9974H505.564Z" fill="url(#paint5_linear_53_9)"/>
<defs>
<linearGradient id="paint0_linear_53_9" x1="-5.02438" y1="71.7087" x2="516.53" y2="71.7087" gradientUnits="userSpaceOnUse">
<stop stop-color="#626EFF"/>
<stop offset="1" stop-color="#80B4EB"/>
</linearGradient>
<linearGradient id="paint1_linear_53_9" x1="-5.02438" y1="71.7087" x2="516.53" y2="71.7087" gradientUnits="userSpaceOnUse">
<stop stop-color="#626EFF"/>
<stop offset="1" stop-color="#80B4EB"/>
</linearGradient>
<linearGradient id="paint2_linear_53_9" x1="-5.02438" y1="71.7087" x2="516.53" y2="71.7087" gradientUnits="userSpaceOnUse">
<stop stop-color="#626EFF"/>
<stop offset="1" stop-color="#80B4EB"/>
</linearGradient>
<linearGradient id="paint3_linear_53_9" x1="-5.02438" y1="71.7087" x2="516.53" y2="71.7087" gradientUnits="userSpaceOnUse">
<stop stop-color="#626EFF"/>
<stop offset="1" stop-color="#80B4EB"/>
</linearGradient>
<linearGradient id="paint4_linear_53_9" x1="-5.02438" y1="71.7087" x2="516.53" y2="71.7087" gradientUnits="userSpaceOnUse">
<stop stop-color="#626EFF"/>
<stop offset="1" stop-color="#80B4EB"/>
</linearGradient>
<linearGradient id="paint5_linear_53_9" x1="-5.02438" y1="71.7087" x2="516.53" y2="71.7087" gradientUnits="userSpaceOnUse">
<stop stop-color="#626EFF"/>
<stop offset="1" stop-color="#80B4EB"/>
</linearGradient>
</defs>
</svg>
